<svg version="1.1" id="Layer_1" xmlns="http://www.w3.org/2000/svg" xmlns:xlink="http://www.w3.org/1999/xlink" x="0px" y="0px"
	 width="100%" viewBox="0 0 512 512" enable-background="new 0 0 512 512" xml:space="preserve">
<path fill="#000000" opacity="1.000000" stroke="none" 
	d="
M280.000000,513.000000 
	C186.689316,513.000000 93.878632,513.000000 1.033972,513.000000 
	C1.033972,342.397614 1.033972,171.795242 1.033972,1.096426 
	C171.560699,1.096426 342.121490,1.096426 512.841125,1.096426 
	C512.841125,171.666550 512.841125,342.333252 512.841125,513.000000 
	C435.461884,513.000000 357.980927,513.000000 280.000000,513.000000 
M108.099258,239.520813 
	C103.763062,243.826157 98.779449,247.656769 95.210075,252.524414 
	C83.744736,268.160065 80.870995,285.460815 86.133858,304.278717 
	C90.529060,319.994232 104.557915,327.691376 114.377632,338.815338 
	C117.983543,342.900208 124.377220,344.555695 129.555176,347.210266 
	C133.034317,348.993896 135.612061,347.944885 137.281036,344.409637 
	C138.560379,341.699677 139.723297,338.892456 141.352524,336.399353 
	C144.168915,332.089569 142.233093,329.713867 138.444672,327.731628 
	C134.321045,325.574036 130.397385,322.934631 126.091087,321.269196 
	C124.038536,320.475403 121.303139,321.477509 118.874168,321.615356 
	C117.409019,321.698486 115.568321,322.273743 114.528198,321.621002 
	C105.532883,315.976105 99.589645,307.789520 97.168861,297.574951 
	C93.018333,280.061798 98.323318,264.899353 111.053665,252.704956 
	C117.614220,246.420593 126.047371,243.280502 135.785294,244.322205 
	C137.897217,260.625824 139.956009,276.507843 142.011353,292.390289 
	C143.432144,303.369293 144.839020,314.350067 146.268433,325.327942 
	C148.507751,342.525787 150.776398,359.719818 153.001740,376.919464 
	C154.160568,385.875946 155.531860,394.688568 163.967239,400.257660 
	C164.573837,400.658173 164.920471,402.001617 164.816864,402.835693 
	C164.308380,406.928986 163.833191,411.049103 162.931793,415.066742 
	C159.897476,428.590942 154.591629,440.971893 141.601456,447.723297 
	C133.820343,451.767334 125.456253,458.312317 116.722343,448.908966 
	C116.401215,448.563263 115.849693,448.435120 115.412468,448.193115 
	C112.500740,446.581635 111.043243,447.406555 111.000702,450.765228 
	C110.960670,453.926086 110.992943,457.096863 110.750114,460.244507 
	C109.952393,470.585388 109.044121,480.917755 108.154999,491.531769 
	C113.663033,492.713531 118.166908,491.796753 122.313431,488.248108 
	C128.816467,482.682678 129.109161,475.858154 126.540848,468.437531 
	C127.987122,467.905884 129.038498,467.327118 130.156036,467.136780 
	C156.022064,462.731262 172.239044,442.707275 176.968643,417.698151 
	C177.940582,412.558777 178.675873,407.374664 179.471176,402.511261 
	C241.508575,394.386414 303.021057,386.330292 364.927155,378.222656 
	C369.250763,411.163116 372.891632,443.431641 361.946503,475.975342 
	C376.511993,475.975342 390.469543,476.033600 404.423340,475.832245 
	C405.271454,475.820007 406.849792,473.709930 406.798065,472.638214 
	C406.476471,465.978363 401.013519,459.263824 394.270477,458.195831 
	C390.141693,457.541870 385.749176,458.552979 381.572327,458.810364 
	C382.023682,452.276947 382.726379,445.234680 382.940735,438.177551 
	C383.186096,430.099579 383.451904,421.976715 382.890472,413.930420 
	C382.062988,402.070740 380.377686,390.272675 379.395874,378.420380 
	C379.224274,376.349182 380.153168,373.636078 381.541748,372.087250 
	C386.126160,366.973633 388.532562,361.036407 387.858246,354.414795 
	C386.519440,341.268219 384.561127,328.184174 382.822632,315.079071 
	C380.563385,298.048676 378.293060,281.019714 375.982117,263.996277 
	C374.093994,250.087753 372.192963,236.180496 370.173859,222.290665 
	C369.708344,219.088394 370.214874,216.889908 373.590912,215.631027 
	C376.058105,214.711029 378.426270,213.356232 380.603607,211.854538 
	C400.593933,198.067383 412.745422,178.712845 419.982819,155.939987 
	C421.829346,150.129761 422.012360,143.119354 425.519470,138.684738 
	C429.559540,133.576172 430.186401,128.713760 429.977081,123.052010 
	C429.794922,118.124619 426.697723,114.722328 421.351410,113.688461 
	C416.590607,112.767822 412.717316,114.421463 410.666962,118.849655 
	C408.046692,124.508667 408.042389,130.314270 410.645508,136.128326 
	C411.317261,137.628693 411.697479,139.594727 411.357819,141.161804 
	C407.172516,160.473083 399.461578,178.155182 385.538452,192.468155 
	C380.748016,197.392746 374.681824,201.076355 368.162018,206.130219 
	C365.937653,188.105881 364.029907,171.870193 361.910522,155.662186 
	C359.019379,133.552856 356.065735,111.450600 352.931458,89.374763 
	C351.795441,81.373650 347.237152,75.357040 339.532013,72.967056 
	C335.180939,71.617432 330.152802,71.656578 325.534271,72.117683 
	C313.540619,73.315079 301.603088,75.078575 289.646484,76.641518 
	C278.670441,78.076271 267.704865,79.592522 256.723419,80.984238 
	C245.081802,82.459610 233.415787,83.745285 221.780746,85.269051 
	C207.859299,87.092255 193.962708,89.104607 180.049225,90.989655 
	C164.988251,93.030167 149.892761,94.836464 134.866135,97.101891 
	C126.677444,98.336418 117.984985,110.953659 119.143600,118.901428 
	C121.144821,132.629257 123.102867,146.364120 124.955872,160.112656 
	C127.670059,180.250702 130.297836,200.400513 132.907333,220.552460 
	C133.380753,224.208435 133.589874,227.898651 133.944366,231.832123 
	C124.236610,231.724930 116.179207,234.454559 108.099258,239.520813 
M377.650848,101.138092 
	C379.213776,101.441856 380.787567,101.698723 382.337891,102.056999 
	C392.566803,104.420837 394.400085,103.797821 399.943329,96.004005 
	C403.692535,90.732697 401.297028,74.924927 395.624634,73.564735 
	C390.177002,72.258415 383.230591,72.328453 378.333618,74.684464 
	C369.931488,78.726807 369.653107,94.522385 377.650848,101.138092 
M170.116348,51.660412 
	C169.434769,48.515190 168.513397,46.182228 164.246796,46.853291 
	C160.409790,47.456783 156.402969,46.980499 153.065811,46.980499 
	C151.861664,49.426472 150.800980,51.424953 149.878174,53.485191 
	C147.273758,59.299892 149.748749,68.622177 154.338501,69.392128 
	C159.072647,70.186310 164.711884,68.948502 169.181747,66.906639 
	C172.856323,65.228073 173.058502,56.728882 170.116348,51.660412 
M90.992661,206.399170 
	C91.569801,208.007690 91.973663,209.706558 92.756477,211.207825 
	C95.138969,215.776993 99.150078,212.772049 102.327492,212.884720 
	C111.585632,213.213013 116.570702,204.567429 112.021950,196.279694 
	C110.626801,193.737762 108.755684,189.881897 106.701393,189.605148 
	C102.440491,189.031113 96.959839,189.103134 93.725670,191.383926 
	C89.409264,194.427963 88.612099,200.151825 90.992661,206.399170 
M249.994156,61.692429 
	C249.994156,63.664463 249.994156,65.636497 249.994156,67.520668 
	C257.473389,69.736740 257.473389,69.736740 258.326904,61.730465 
	C259.278381,62.179882 260.318573,62.671207 261.358765,63.162533 
	C261.455780,62.956303 261.552765,62.750076 261.649780,62.543850 
	C261.197937,62.170124 260.746094,61.796394 260.913025,61.934475 
	C262.867889,60.736633 266.409332,59.738205 266.675049,58.180882 
	C267.428375,53.765579 262.861725,53.806816 260.155151,52.709450 
	C260.000793,50.912086 259.872009,49.412319 259.743225,47.912548 
	C259.550385,47.922314 259.357544,47.932083 259.164734,47.941853 
	C259.036591,50.162712 258.908478,52.383572 258.711395,55.800087 
	C258.006195,51.695572 257.626587,48.810890 256.951508,45.997101 
	C256.765808,45.223167 255.711456,44.163509 255.029709,44.144028 
	C254.369980,44.125175 253.529129,45.177795 253.023346,45.931297 
	C250.548416,49.618443 251.306061,56.265228 243.999695,55.565517 
	C243.412506,55.509285 242.438004,56.885254 242.139450,57.764160 
	C242.026337,58.097130 243.223679,59.204121 243.984665,59.440773 
	C245.925613,60.044384 247.957214,60.356541 249.994156,61.692429 
M106.002029,146.342346 
	C106.366661,145.570435 106.704338,144.144882 107.100136,144.128555 
	C110.730911,143.978790 113.511833,142.295288 112.709709,138.687332 
	C112.349129,137.065445 108.861000,136.138901 106.889442,134.955322 
	C106.525566,135.178329 106.841438,134.962830 107.178650,134.788651 
	C107.317398,134.716980 107.503777,134.742401 107.665367,134.708679 
	C107.827553,134.674820 107.985847,134.622314 108.145844,134.577972 
	C108.094109,134.395782 108.042381,134.213577 107.990646,134.031372 
	C106.710373,134.408859 105.430092,134.786346 103.893112,135.239517 
	C104.178436,133.820847 105.019928,132.047821 104.694443,130.524033 
	C104.413094,129.206818 103.001083,127.643974 101.725807,127.173149 
	C100.612343,126.762070 98.109886,127.341820 97.763000,128.147598 
	C96.739647,130.524719 96.481064,133.231064 96.143143,134.792404 
	C93.916443,136.158432 90.311592,137.328964 90.289436,138.563812 
	C90.193802,143.893433 95.449699,140.944260 97.309181,142.098297 
	C98.042862,145.063904 98.429398,147.439941 99.268959,149.643372 
	C99.635368,150.605042 100.929817,151.213120 101.802803,151.981781 
	C102.531944,150.852158 103.675774,149.797165 103.895592,148.575882 
	C104.248520,146.615036 103.990234,144.544159 103.990234,142.519791 
	C104.256180,142.520264 104.522125,142.520737 104.788071,142.521225 
	C104.935768,144.529709 105.083466,146.538208 105.325676,149.832016 
	C105.768608,148.079163 105.884232,147.621597 106.002029,146.342346 
M296.606384,30.062983 
	C293.368408,37.027088 299.445984,36.457325 302.998383,37.803528 
	C303.383362,37.949429 304.202637,36.949345 305.315674,36.105263 
	C305.315674,39.963291 305.315674,43.444870 305.315674,46.922173 
	C311.567841,45.693317 309.464539,40.660896 310.268616,37.201698 
	C319.246185,36.718971 319.246185,36.718971 318.685181,30.673927 
	C315.862396,30.673927 313.056061,30.673927 309.939697,30.673927 
	C309.939697,27.705694 309.939697,24.930199 309.939697,22.247036 
	C308.228851,21.998695 306.834595,21.796305 304.843567,21.507292 
	C304.843567,24.395834 304.843567,27.452549 304.843567,29.519178 
	C302.215424,29.692589 299.848480,29.848763 296.606384,30.062983 
z"/>
<path fill="#131429" opacity="1.000000" stroke="none" 
	d="
M108.410507,239.327423 
	C116.179207,234.454559 124.236610,231.724930 133.944366,231.832123 
	C133.589874,227.898651 133.380753,224.208435 132.907333,220.552460 
	C130.297836,200.400513 127.670059,180.250702 124.955872,160.112656 
	C123.102867,146.364120 121.144821,132.629257 119.143600,118.901428 
	C117.984985,110.953659 126.677444,98.336418 134.866135,97.101891 
	C149.892761,94.836464 164.988251,93.030167 180.049225,90.989655 
	C193.962708,89.104607 207.859299,87.092255 221.780746,85.269051 
	C233.415787,83.745285 245.081802,82.459610 256.723419,80.984238 
	C267.704865,79.592522 278.670441,78.076271 289.646484,76.641518 
	C301.603088,75.078575 313.540619,73.315079 325.534271,72.117683 
	C330.152802,71.656578 335.180939,71.617432 339.532013,72.967056 
	C347.237152,75.357040 351.795441,81.373650 352.931458,89.374763 
	C356.065735,111.450600 359.019379,133.552856 361.910522,155.662186 
	C364.029907,171.870193 365.937653,188.105881 368.162018,206.130219 
	C374.681824,201.076355 380.748016,197.392746 385.538452,192.468155 
	C399.461578,178.155182 407.172516,160.473083 411.357819,141.161804 
	C411.697479,139.594727 411.317261,137.628693 410.645508,136.128326 
	C408.042389,130.314270 408.046692,124.508667 410.666962,118.849655 
	C412.717316,114.421463 416.590607,112.767822 421.351410,113.688461 
	C426.697723,114.722328 429.794922,118.124619 429.977081,123.052010 
	C430.186401,128.713760 429.559540,133.576172 425.519470,138.684738 
	C422.012360,143.119354 421.829346,150.129761 419.982819,155.939987 
	C412.745422,178.712845 400.593933,198.067383 380.603607,211.854538 
	C378.426270,213.356232 376.058105,214.711029 373.590912,215.631027 
	C370.214874,216.889908 369.708344,219.088394 370.173859,222.290665 
	C372.192963,236.180496 374.093994,250.087753 375.982117,263.996277 
	C378.293060,281.019714 380.563385,298.048676 382.822632,315.079071 
	C384.561127,328.184174 386.519440,341.268219 387.858246,354.414795 
	C388.532562,361.036407 386.126160,366.973633 381.541748,372.087250 
	C380.153168,373.636078 379.224274,376.349182 379.395874,378.420380 
	C380.377686,390.272675 382.062988,402.070740 382.890472,413.930420 
	C383.451904,421.976715 383.186096,430.099579 382.940735,438.177551 
	C382.726379,445.234680 382.023682,452.276947 381.572327,458.810364 
	C385.749176,458.552979 390.141693,457.541870 394.270477,458.195831 
	C401.013519,459.263824 406.476471,465.978363 406.798065,472.638214 
	C406.849792,473.709930 405.271454,475.820007 404.423340,475.832245 
	C390.469543,476.033600 376.511993,475.975342 361.946503,475.975342 
	C372.891632,443.431641 369.250763,411.163116 364.927155,378.222656 
	C303.021057,386.330292 241.508575,394.386414 179.471176,402.511261 
	C178.675873,407.374664 177.940582,412.558777 176.968643,417.698151 
	C172.239044,442.707275 156.022064,462.731262 130.156036,467.136780 
	C129.038498,467.327118 127.987122,467.905884 126.540848,468.437531 
	C129.109161,475.858154 128.816467,482.682678 122.313431,488.248108 
	C118.166908,491.796753 113.663033,492.713531 108.154999,491.531769 
	C109.044121,480.917755 109.952393,470.585388 110.750114,460.244507 
	C110.992943,457.096863 110.960670,453.926086 111.000702,450.765228 
	C111.043243,447.406555 112.500740,446.581635 115.412468,448.193115 
	C115.849693,448.435120 116.401215,448.563263 116.722343,448.908966 
	C125.456253,458.312317 133.820343,451.767334 141.601456,447.723297 
	C154.591629,440.971893 159.897476,428.590942 162.931793,415.066742 
	C163.833191,411.049103 164.308380,406.928986 164.816864,402.835693 
	C164.920471,402.001617 164.573837,400.658173 163.967239,400.257660 
	C155.531860,394.688568 154.160568,385.875946 153.001740,376.919464 
	C150.776398,359.719818 148.507751,342.525787 146.268433,325.327942 
	C144.839020,314.350067 143.432144,303.369293 142.011353,292.390289 
	C139.956009,276.507843 137.897217,260.625824 135.785294,244.322205 
	C126.047371,243.280502 117.614220,246.420593 111.053665,252.704956 
	C98.323318,264.899353 93.018333,280.061798 97.168861,297.574951 
	C99.589645,307.789520 105.532883,315.976105 114.528198,321.621002 
	C115.568321,322.273743 117.409019,321.698486 118.874168,321.615356 
	C121.303139,321.477509 124.038536,320.475403 126.091087,321.269196 
	C130.397385,322.934631 134.321045,325.574036 138.444672,327.731628 
	C142.233093,329.713867 144.168915,332.089569 141.352524,336.399353 
	C139.723297,338.892456 138.560379,341.699677 137.281036,344.409637 
	C135.612061,347.944885 133.034317,348.993896 129.555176,347.210266 
	C124.377220,344.555695 117.983543,342.900208 114.377632,338.815338 
	C104.557915,327.691376 90.529060,319.994232 86.133858,304.278717 
	C80.870995,285.460815 83.744736,268.160065 95.210075,252.524414 
	C98.779449,247.656769 103.763062,243.826157 108.410507,239.327423 
M192.804428,391.899170 
	C203.362015,390.544800 213.923599,389.220703 224.476517,387.830902 
	C271.797089,381.598969 319.114990,375.346497 366.434448,369.105957 
	C375.694427,367.884766 380.112091,361.948975 378.707947,352.753174 
	C377.754364,346.508057 376.904510,340.245941 376.091858,333.980621 
	C372.283813,304.622437 368.540192,275.255829 364.705841,245.901123 
	C360.505768,213.746628 356.239075,181.600830 351.986572,149.453217 
	C349.413208,129.999466 346.913208,110.535126 344.171539,91.104988 
	C343.110168,83.582993 337.401062,79.261795 330.058411,80.167923 
	C316.690338,81.817596 303.349884,83.690254 289.994507,85.443848 
	C265.589813,88.648262 241.180313,91.816124 216.777237,95.032715 
	C197.834061,97.529633 178.897614,100.077499 159.057724,102.663963 
	C155.258316,103.112045 151.461151,103.580177 147.659119,104.004822 
	C129.384964,106.045830 126.851921,109.547958 129.319000,127.752144 
	C134.634735,166.976227 139.752014,206.227249 144.917908,245.471558 
	C150.908630,290.981842 156.845581,336.499207 162.852051,382.007416 
	C163.980453,390.556824 169.639511,394.869110 178.155228,393.808960 
	C182.774490,393.233887 187.372116,392.484833 192.804428,391.899170 
z"/>
<path fill="#FFFFFF" opacity="1.000000" stroke="none" 
	d="
M377.247498,101.061707 
	C369.653107,94.522385 369.931488,78.726807 378.333618,74.684464 
	C383.230591,72.328453 390.177002,72.258415 395.624634,73.564735 
	C401.297028,74.924927 403.692535,90.732697 399.943329,96.004005 
	C394.400085,103.797821 392.566803,104.420837 382.337891,102.056999 
	C380.787567,101.698723 379.213776,101.441856 377.247498,101.061707 
M393.999115,85.806976 
	C392.403839,83.802094 390.808533,81.797218 389.393768,80.019241 
	C389.313446,80.042229 390.041565,79.833817 390.769714,79.625412 
	C388.610229,78.824554 386.480621,78.665428 384.495972,79.128128 
	C383.698242,79.314117 383.372650,81.496948 382.569550,81.692528 
	C377.162720,83.009277 378.534180,87.647934 379.341919,90.349884 
	C380.037415,92.676422 383.440216,95.450508 385.911804,95.737465 
	C391.737000,96.413780 393.998444,93.341492 393.999115,85.806976 
z"/>
<path fill="#FEFEFE" opacity="1.000000" stroke="none" 
	d="
M170.427689,51.917179 
	C173.058502,56.728882 172.856323,65.228073 169.181747,66.906639 
	C164.711884,68.948502 159.072647,70.186310 154.338501,69.392128 
	C149.748749,68.622177 147.273758,59.299892 149.878174,53.485191 
	C150.800980,51.424953 151.861664,49.426472 153.065811,46.980499 
	C156.402969,46.980499 160.409790,47.456783 164.246796,46.853291 
	C168.513397,46.182228 169.434769,48.515190 170.427689,51.917179 
M165.995468,60.081352 
	C165.995468,58.182713 165.995468,56.284073 165.995468,54.971992 
	C163.222549,54.537941 160.953049,53.839363 158.733398,53.972366 
	C157.527084,54.044647 155.835571,55.318844 155.417496,56.443085 
	C155.051987,57.426025 155.913071,59.129925 156.664734,60.216030 
	C159.405090,64.175758 162.858078,60.627724 165.995468,60.081352 
z"/>
<path fill="#FEFEFE" opacity="1.000000" stroke="none" 
	d="
M90.967743,205.970032 
	C88.612099,200.151825 89.409264,194.427963 93.725670,191.383926 
	C96.959839,189.103134 102.440491,189.031113 106.701393,189.605148 
	C108.755684,189.881897 110.626801,193.737762 112.021950,196.279694 
	C116.570702,204.567429 111.585632,213.213013 102.327492,212.884720 
	C99.150078,212.772049 95.138969,215.776993 92.756477,211.207825 
	C91.973663,209.706558 91.569801,208.007690 90.967743,205.970032 
M104.024742,197.985306 
	C103.218994,197.039841 102.413246,196.094376 101.911171,195.505234 
	C99.874611,196.632309 97.472015,197.301086 96.218674,198.881363 
	C95.341591,199.987228 95.381889,203.474808 96.151344,203.917007 
	C98.312622,205.159103 101.040756,205.643784 103.593239,205.858887 
	C104.557579,205.940155 106.511971,204.472214 106.519615,203.695724 
	C106.538612,201.765594 109.185806,198.705536 104.024742,197.985306 
z"/>
<path fill="#FEFEFE" opacity="1.000000" stroke="none" 
	d="
M249.973358,61.238869 
	C247.957214,60.356541 245.925613,60.044384 243.984665,59.440773 
	C243.223679,59.204121 242.026337,58.097130 242.139450,57.764160 
	C242.438004,56.885254 243.412506,55.509285 243.999695,55.565517 
	C251.306061,56.265228 250.548416,49.618443 253.023346,45.931297 
	C253.529129,45.177795 254.369980,44.125175 255.029709,44.144028 
	C255.711456,44.163509 256.765808,45.223167 256.951508,45.997101 
	C257.626587,48.810890 258.006195,51.695572 258.711395,55.800087 
	C258.908478,52.383572 259.036591,50.162712 259.164734,47.941853 
	C259.357544,47.932083 259.550385,47.922314 259.743225,47.912548 
	C259.872009,49.412319 260.000793,50.912086 260.155151,52.709450 
	C262.861725,53.806816 267.428375,53.765579 266.675049,58.180882 
	C266.409332,59.738205 262.867889,60.736633 260.913025,61.934475 
	C260.746094,61.796394 261.197937,62.170124 261.649780,62.543850 
	C261.552765,62.750076 261.455780,62.956303 261.358765,63.162533 
	C260.318573,62.671207 259.278381,62.179882 258.326904,61.730465 
	C257.473389,69.736740 257.473389,69.736740 249.994156,67.520668 
	C249.994156,65.636497 249.994156,63.664463 249.973358,61.238869 
z"/>
<path fill="#FEFEFE" opacity="1.000000" stroke="none" 
	d="
M106.000946,146.753174 
	C105.884232,147.621597 105.768608,148.079163 105.325676,149.832016 
	C105.083466,146.538208 104.935768,144.529709 104.788071,142.521225 
	C104.522125,142.520737 104.256180,142.520264 103.990234,142.519791 
	C103.990234,144.544159 104.248520,146.615036 103.895592,148.575882 
	C103.675774,149.797165 102.531944,150.852158 101.802811,151.981781 
	C100.929817,151.213120 99.635368,150.605042 99.268959,149.643372 
	C98.429398,147.439941 98.042862,145.063904 97.309181,142.098297 
	C95.449699,140.944260 90.193802,143.893433 90.289436,138.563812 
	C90.311592,137.328964 93.916443,136.158432 96.143143,134.792404 
	C96.481064,133.231064 96.739647,130.524719 97.763000,128.147598 
	C98.109886,127.341820 100.612343,126.762070 101.725807,127.173149 
	C103.001083,127.643974 104.413094,129.206818 104.694443,130.524033 
	C105.019928,132.047821 104.178436,133.820847 103.893112,135.239517 
	C105.430092,134.786346 106.710373,134.408859 107.990646,134.031372 
	C108.042381,134.213577 108.094109,134.395782 108.145844,134.577972 
	C107.985847,134.622314 107.827553,134.674820 107.665367,134.708679 
	C107.503777,134.742401 107.317398,134.716980 107.178650,134.788651 
	C106.841438,134.962830 106.525566,135.178329 106.889442,134.955322 
	C108.861000,136.138901 112.349129,137.065445 112.709709,138.687332 
	C113.511833,142.295288 110.730911,143.978790 107.100136,144.128555 
	C106.704338,144.144882 106.366661,145.570435 106.000946,146.753174 
z"/>
<path fill="#FFFFFF" opacity="1.000000" stroke="none" 
	d="
M297.043945,30.033960 
	C299.848480,29.848763 302.215424,29.692589 304.843567,29.519178 
	C304.843567,27.452549 304.843567,24.395834 304.843567,21.507292 
	C306.834595,21.796305 308.228851,21.998695 309.939697,22.247036 
	C309.939697,24.930199 309.939697,27.705694 309.939697,30.673927 
	C313.056061,30.673927 315.862396,30.673927 318.685181,30.673927 
	C319.246185,36.718971 319.246185,36.718971 310.268616,37.201698 
	C309.464539,40.660896 311.567841,45.693317 305.315674,46.922173 
	C305.315674,43.444870 305.315674,39.963291 305.315674,36.105263 
	C304.202637,36.949345 303.383362,37.949429 302.998383,37.803528 
	C299.445984,36.457325 293.368408,37.027088 297.043945,30.033960 
z"/>
<path fill="#596EB0" opacity="1.000000" stroke="none" 
	d="
M159.958176,102.602722 
	C178.897614,100.077499 197.834061,97.529633 216.777237,95.032715 
	C241.180313,91.816124 265.589813,88.648262 289.994507,85.443848 
	C303.349884,83.690254 316.690338,81.817596 330.058411,80.167923 
	C337.401062,79.261795 343.110168,83.582993 344.171539,91.104988 
	C346.913208,110.535126 349.413208,129.999466 351.986572,149.453217 
	C356.239075,181.600830 360.505768,213.746628 364.705841,245.901123 
	C368.540192,275.255829 372.283813,304.622437 376.091858,333.980621 
	C376.904510,340.245941 377.754364,346.508057 378.707947,352.753174 
	C380.112091,361.948975 375.694427,367.884766 366.434448,369.105957 
	C319.114990,375.346497 271.797089,381.598969 224.476517,387.830902 
	C213.923599,389.220703 203.362015,390.544800 192.392273,391.491577 
	C186.957062,382.046326 187.566986,371.837646 186.386902,362.057220 
	C195.361465,360.970856 203.909622,359.974609 212.438675,358.835388 
	C215.390884,358.441101 217.418869,356.916443 217.044556,353.513885 
	C216.284576,346.605621 215.710358,339.667450 214.647400,332.805420 
	C213.975342,328.467010 210.822937,327.629486 206.750381,328.207153 
	C198.564453,329.368286 190.332794,330.206970 182.073853,330.754822 
	C181.215164,325.682007 180.402618,321.033112 179.525986,316.017487 
	C177.100876,316.017487 174.973389,316.134155 172.872620,315.948517 
	C172.217804,315.890625 171.635208,315.015350 171.423096,314.471222 
	C175.954727,313.851105 176.122513,310.981201 175.731323,307.745117 
	C174.855804,300.502167 174.008545,293.255768 173.406906,285.863098 
	C174.391144,285.454529 175.118256,285.193573 175.879852,285.372986 
	C176.958328,294.517822 177.861099,303.244293 179.210236,311.901215 
	C179.396271,313.094971 181.883118,314.910889 183.154434,314.794617 
	C191.056442,314.072083 198.965271,313.138641 206.749557,311.640106 
	C208.429352,311.316772 210.887512,308.327606 210.798172,306.685516 
	C210.413071,299.606995 209.313889,292.557922 208.271500,285.528259 
	C207.679764,281.537811 205.096542,280.772797 201.302185,281.309296 
	C192.951736,282.489929 184.542496,283.254822 176.054169,283.769745 
	C175.263260,278.340698 174.575455,273.331329 174.330490,268.239807 
	C183.305878,267.085388 191.842682,266.045349 200.369003,264.925720 
	C204.040848,264.443573 205.463898,262.185211 204.948853,258.601257 
	C203.984848,251.893036 203.305847,245.121735 201.851929,238.521225 
	C201.476593,236.817322 198.548615,234.322571 196.987106,234.456238 
	C187.945633,235.230179 178.962204,236.681870 169.909271,237.503555 
	C168.921951,229.441879 167.984512,221.780823 167.283051,214.063232 
	C167.519028,214.006699 167.980881,213.857681 168.395554,213.866669 
	C170.279053,213.613861 171.739609,213.286148 173.217987,213.100357 
	C189.995697,210.991776 206.784424,208.968979 223.553787,206.796478 
	C245.911011,203.900024 268.259552,200.934631 290.599731,197.909500 
	C299.100159,196.758438 307.567017,195.359695 316.488342,194.070724 
	C322.501648,193.393936 328.076630,192.727325 333.649658,192.044662 
	C339.681580,191.305817 341.629852,188.510269 340.761658,182.670624 
	C339.061981,171.238464 337.537537,159.779602 336.018158,148.321503 
	C333.955627,132.767303 332.002563,117.198532 329.915924,101.647636 
	C329.463257,98.274254 327.282379,95.837822 323.892090,96.221146 
	C315.896942,97.125092 307.965576,98.593079 299.554932,99.831169 
	C289.040497,100.978233 278.963470,102.002632 268.921906,103.301399 
	C247.034363,106.132301 225.158463,109.055824 203.290131,112.032043 
	C187.203354,114.221413 171.136139,116.554420 154.869141,118.482712 
	C152.592209,111.655457 155.450790,106.848969 159.958176,102.602722 
M342.123291,250.961975 
	C339.074097,251.297974 336.024902,251.633972 332.103302,251.963959 
	C326.074310,252.882675 320.045349,253.801392 313.104553,254.797531 
	C302.749603,255.937744 292.376404,256.936859 282.047150,258.275482 
	C276.579224,258.984131 275.665436,260.822327 276.632599,266.496490 
	C277.243195,270.078583 277.671509,273.700928 277.981201,277.322357 
	C278.259155,280.572754 279.848541,282.399628 283.090179,281.980011 
	C292.413025,280.773254 301.709198,279.360229 311.900269,278.034241 
	C320.269745,277.013672 328.639191,275.993103 337.849030,274.989502 
	C340.797180,274.611176 343.765320,274.344727 346.687988,273.823547 
	C349.700287,273.286377 351.443787,271.647430 350.864563,268.253693 
	C350.169708,264.182281 349.591400,260.091034 349.000824,255.229340 
	C348.679047,251.444519 347.520782,248.834717 342.123291,250.961975 
M352.833954,315.335754 
	C352.149323,311.887360 351.464722,308.438934 350.835052,304.353607 
	C350.755005,303.937469 350.674957,303.521332 350.858948,302.291595 
	C350.147400,297.878571 349.881165,293.320221 348.511017,289.122131 
	C347.941620,287.377594 344.947235,285.194275 343.173859,285.294922 
	C336.910950,285.650360 330.669525,286.745850 324.478699,287.881195 
	C320.474152,288.615601 320.043671,291.521454 320.594025,295.149048 
	C322.857300,310.067688 324.950653,325.012390 327.045746,339.956024 
	C327.632812,344.143524 329.941711,346.123749 334.178162,345.525116 
	C339.255585,344.807678 344.316040,343.961823 349.371521,343.099457 
	C355.794006,342.003876 356.672760,340.426819 354.786621,333.206146 
	C354.722961,332.511353 354.659302,331.816589 354.882935,330.289764 
	C354.167236,326.190918 353.451538,322.092102 352.784454,317.363037 
	C352.704987,316.951599 352.625519,316.540161 352.833954,315.335754 
M327.202454,217.061157 
	C323.802032,217.699951 320.401581,218.338730 316.115601,218.955261 
	C302.484253,220.680603 288.840881,222.321945 275.241699,224.271652 
	C273.992828,224.450714 272.041840,226.645203 272.097137,227.825027 
	C272.352112,233.262863 273.049561,238.697006 273.901825,244.082855 
	C274.355072,246.947220 276.117645,248.188675 279.345245,247.454803 
	C282.880951,246.650894 286.563019,246.510574 290.166870,245.982666 
	C298.804871,244.717331 307.434418,243.394363 316.950439,242.061310 
	C321.973114,241.416077 326.995819,240.770844 332.897583,240.085098 
	C336.018005,239.722122 339.255554,239.742081 342.210571,238.838272 
	C343.740051,238.370468 345.875793,236.225754 345.828918,234.906479 
	C345.641907,229.643158 344.942963,224.357437 343.878662,219.194382 
	C343.612976,217.905411 341.297485,216.185501 339.885895,216.149155 
	C335.943451,216.047653 331.981018,216.724442 327.202454,217.061157 
M287.114105,312.615326 
	C287.194580,313.038818 287.275055,313.462280 287.097290,314.732941 
	C288.567505,324.912048 289.906433,335.112701 291.571991,345.259735 
	C292.246063,349.366547 294.745728,351.796600 299.353729,350.856079 
	C302.562988,350.201080 305.770630,349.538147 309.622406,348.904602 
	C310.039551,348.810913 310.456665,348.717194 311.670410,348.864563 
	C318.234100,348.420868 321.289886,346.337128 320.680695,342.079803 
	C318.518982,326.973083 316.267395,311.874939 313.714600,296.830444 
	C312.571350,290.092865 309.994965,289.000031 302.357666,291.151489 
	C301.944000,291.225220 301.530304,291.298981 300.282837,291.099670 
	C296.382629,291.912964 292.482391,292.726257 288.198578,293.548309 
	C288.198578,293.548309 287.873444,293.752045 287.089142,293.897369 
	C286.347595,295.251007 284.876709,296.672333 284.994904,297.946228 
	C285.430847,302.646576 286.392426,307.298126 287.114105,312.615326 
M272.097992,337.294769 
	C271.757996,334.832397 271.099304,332.365479 271.134155,329.908417 
	C271.271729,320.207062 268.524841,320.248138 259.414520,321.399963 
	C250.704712,322.501221 242.037048,323.963531 233.311478,324.900269 
	C229.248688,325.336456 227.545425,327.173981 228.031601,331.031860 
	C228.880463,337.767822 229.903061,344.481720 230.821640,351.209106 
	C231.302307,354.729462 233.137207,355.860260 236.698120,355.365845 
	C246.053955,354.066895 255.450638,353.062561 264.830536,351.936707 
	C272.558350,351.009125 273.500916,349.887878 272.936981,342.088959 
	C272.842010,340.775787 272.475006,339.482300 272.097992,337.294769 
M253.220703,227.007874 
	C242.375000,228.373169 231.526611,229.717560 220.685242,231.116440 
	C217.413803,231.538574 215.514084,233.226486 215.923019,236.807785 
	C216.693802,243.557678 217.284134,250.333633 218.276016,257.050537 
	C218.767151,260.376465 220.906113,262.404602 224.617737,261.918030 
	C235.127502,260.540283 245.640564,259.185242 256.139587,257.729340 
	C259.651703,257.242340 261.477661,255.139389 260.981750,251.489044 
	C260.067871,244.762054 259.277924,238.004562 257.947784,231.357529 
	C257.619812,229.718597 255.413101,228.455627 253.220703,227.007874 
M231.938400,277.226868 
	C230.804062,277.471222 229.680664,277.805756 228.533554,277.944885 
	C222.475677,278.679718 221.550018,279.554657 222.055389,285.452576 
	C222.579025,291.563416 223.089355,297.722961 224.379807,303.693878 
	C224.810669,305.687469 227.770676,308.760040 229.334320,308.621796 
	C240.220367,307.659454 251.047241,306.011200 261.884338,304.519379 
	C265.934326,303.961884 267.558014,301.541443 267.013245,297.496948 
	C266.238373,291.743988 265.660126,285.963379 264.820343,280.220551 
	C263.936096,274.173492 262.310028,273.260345 255.999756,274.165527 
	C248.288834,275.271606 240.542435,276.130249 231.938400,277.226868 
z"/>
<path fill="#7286BE" opacity="1.000000" stroke="none" 
	d="
M159.507950,102.633347 
	C155.450790,106.848969 152.592209,111.655457 154.605438,118.531044 
	C154.355774,118.942780 154.178741,118.965500 153.593994,118.978531 
	C146.131088,119.398735 144.252670,121.858772 145.186798,128.316742 
	C147.265762,142.689514 149.071106,157.101822 150.993713,171.497238 
	C152.654465,183.931900 154.310608,196.367172 155.994995,208.798645 
	C156.597549,213.245621 159.094940,215.128723 163.588104,214.314026 
	C164.715759,214.109558 165.892761,214.177185 167.047073,214.119766 
	C167.984512,221.780823 168.921951,229.441879 169.907196,237.530701 
	C169.954971,237.958481 169.902863,237.948425 169.518158,237.963394 
	C168.619156,238.015060 168.104843,238.051773 167.432373,237.737915 
	C167.091324,235.568527 167.456100,233.409180 166.589554,232.015411 
	C165.457504,230.194595 163.351028,228.979614 161.663757,227.503967 
	C160.547943,229.463989 158.290710,231.548233 158.488449,233.365311 
	C161.219315,258.458557 164.216080,283.524170 167.403000,308.564056 
	C167.670624,310.666840 169.770782,312.536377 171.019562,314.514282 
	C171.635208,315.015350 172.217804,315.890625 172.872620,315.948517 
	C174.973389,316.134155 177.100876,316.017487 179.525986,316.017487 
	C180.402618,321.033112 181.215164,325.682007 181.935608,330.991791 
	C181.540024,332.112305 181.236557,332.571960 180.607513,332.894592 
	C175.800385,328.833771 170.868256,329.423431 168.485825,334.167877 
	C166.597504,337.928345 168.080307,341.468689 172.917572,345.160400 
	C173.314438,349.502808 173.581985,353.404449 174.100250,357.272552 
	C174.697968,361.733643 177.634125,363.677368 182.138611,362.820435 
	C183.410919,362.578369 184.676437,362.300629 185.962402,362.047852 
	C185.979736,362.056458 185.953003,362.091248 185.953003,362.091248 
	C187.566986,371.837646 186.957062,382.046326 191.979813,391.449158 
	C187.372116,392.484833 182.774490,393.233887 178.155228,393.808960 
	C169.639511,394.869110 163.980453,390.556824 162.852051,382.007416 
	C156.845581,336.499207 150.908630,290.981842 144.917908,245.471558 
	C139.752014,206.227249 134.634735,166.976227 129.319000,127.752144 
	C126.851921,109.547958 129.384964,106.045830 147.659119,104.004822 
	C151.461151,103.580177 155.258316,103.112045 159.507950,102.633347 
z"/>
<path fill="#000000" opacity="1.000000" stroke="none" 
	d="
M393.999176,86.247993 
	C393.998444,93.341492 391.737000,96.413780 385.911804,95.737465 
	C383.440216,95.450508 380.037415,92.676422 379.341919,90.349884 
	C378.534180,87.647934 377.162720,83.009277 382.569550,81.692528 
	C383.372650,81.496948 383.698242,79.314117 384.495972,79.128128 
	C386.480621,78.665428 388.610229,78.824554 390.769714,79.625412 
	C390.041565,79.833817 389.313446,80.042229 389.393768,80.019241 
	C390.808533,81.797218 392.403839,83.802094 393.999176,86.247993 
z"/>
<path fill="#000000" opacity="1.000000" stroke="none" 
	d="
M165.982605,60.500675 
	C162.858078,60.627724 159.405090,64.175758 156.664734,60.216030 
	C155.913071,59.129925 155.051987,57.426025 155.417496,56.443085 
	C155.835571,55.318844 157.527084,54.044647 158.733398,53.972366 
	C160.953049,53.839363 163.222549,54.537941 165.995468,54.971992 
	C165.995468,56.284073 165.995468,58.182713 165.982605,60.500675 
z"/>
<path fill="#000000" opacity="1.000000" stroke="none" 
	d="
M104.441437,197.993729 
	C109.185806,198.705536 106.538612,201.765594 106.519615,203.695724 
	C106.511971,204.472214 104.557579,205.940155 103.593239,205.858887 
	C101.040756,205.643784 98.312622,205.159103 96.151344,203.917007 
	C95.381889,203.474808 95.341591,199.987228 96.218674,198.881363 
	C97.472015,197.301086 99.874611,196.632309 101.911171,195.505234 
	C102.413246,196.094376 103.218994,197.039841 104.441437,197.993729 
z"/>
<path fill="#84DCD3" opacity="1.000000" stroke="none" 
	d="
M154.001724,118.988213 
	C154.178741,118.965500 154.355774,118.942780 154.796509,118.871735 
	C171.136139,116.554420 187.203354,114.221413 203.290131,112.032043 
	C225.158463,109.055824 247.034363,106.132301 268.921906,103.301399 
	C278.963470,102.002632 289.040497,100.978233 299.561249,100.247749 
	C303.252258,115.640892 307.000366,130.527527 309.573639,145.614548 
	C312.311920,161.668747 313.937683,177.912704 316.049194,194.073822 
	C307.567017,195.359695 299.100159,196.758438 290.599731,197.909500 
	C268.259552,200.934631 245.911011,203.900024 223.553787,206.796478 
	C206.784424,208.968979 189.995697,210.991776 173.217987,213.100357 
	C171.739609,213.286148 170.279053,213.613861 168.154465,213.592270 
	C166.997635,212.173431 166.204926,211.078262 166.041626,209.896149 
	C164.736984,200.452179 163.553940,190.991425 162.328934,181.536423 
	C160.553787,167.835236 158.797562,154.131516 156.987915,140.434875 
	C156.042511,133.279373 155.000244,126.136688 154.001724,118.988213 
M255.021805,169.030930 
	C256.428619,167.065994 258.357697,165.268219 259.058990,163.077438 
	C259.527832,161.612930 258.250946,159.589569 257.755280,157.816315 
	C256.357635,158.422379 254.690277,158.724106 253.606583,159.684448 
	C247.105560,165.445480 245.056229,165.660446 236.836502,161.378708 
	C235.705200,160.789398 234.165787,160.983536 232.815323,160.814957 
	C232.648026,162.350082 231.759323,164.549316 232.447540,165.296890 
	C234.586212,167.620056 237.323227,169.392380 240.272934,171.980576 
	C245.505310,173.804657 250.390518,173.826157 255.021805,169.030930 
M179.436066,176.017029 
	C180.630173,178.161591 181.293564,181.131577 183.113968,182.302048 
	C189.595444,186.469528 203.383804,184.427582 208.829605,179.025223 
	C212.473587,175.410309 211.810043,171.248367 207.222153,168.942825 
	C198.675308,164.647827 185.635757,167.686356 179.436066,176.017029 
M294.183228,170.839783 
	C298.606140,169.091721 303.441162,167.973557 307.339172,165.423203 
	C311.458954,162.727722 310.719757,158.145950 306.582428,155.673203 
	C299.877533,151.665909 285.795380,153.615387 280.331177,159.307297 
	C277.072662,162.701584 277.390900,166.911743 281.718079,168.658936 
	C285.293945,170.102768 289.415131,170.196045 294.183228,170.839783 
M287.851654,131.813568 
	C284.750977,128.461014 280.730133,126.607613 276.742126,128.908630 
	C273.923981,130.534683 271.191864,133.715851 270.204681,136.777725 
	C268.745483,141.303879 271.216003,145.235611 275.552002,147.374359 
	C279.672089,149.406601 283.643097,148.768906 287.030029,145.593277 
	C290.667023,142.183167 291.030182,137.949600 287.851654,131.813568 
M208.632782,142.816849 
	C206.333893,142.757172 204.013611,142.500015 201.747818,142.745682 
	C200.962051,142.830872 200.311447,144.162766 199.599106,144.925217 
	C200.423737,145.560837 201.171265,146.549545 202.090836,146.750290 
	C203.512009,147.060532 205.050812,146.832077 207.156067,146.832077 
	C203.447922,149.045975 200.428589,150.652451 197.676849,152.631119 
	C196.998978,153.118561 197.192596,154.818024 196.985596,155.960312 
	C197.999878,155.969711 199.415756,156.419418 199.964798,155.918686 
	C204.279266,151.983887 209.410782,151.537216 214.852951,151.886276 
	C215.867966,151.951385 217.743774,151.446548 217.804825,151.007614 
	C217.958191,149.904831 217.672928,148.199478 216.898422,147.610703 
	C214.571823,145.842026 211.927567,144.491241 208.632782,142.816849 
z"/>
<path fill="#76BACA" opacity="1.000000" stroke="none" 
	d="
M316.488373,194.070724 
	C313.937683,177.912704 312.311920,161.668747 309.573639,145.614548 
	C307.000366,130.527527 303.252258,115.640892 300.014709,100.249512 
	C307.965576,98.593079 315.896942,97.125092 323.892090,96.221146 
	C327.282379,95.837822 329.463257,98.274254 329.915924,101.647636 
	C332.002563,117.198532 333.955627,132.767303 336.018158,148.321503 
	C337.537537,159.779602 339.061981,171.238464 340.761658,182.670624 
	C341.629852,188.510269 339.681580,191.305817 333.649658,192.044662 
	C328.076630,192.727325 322.501648,193.393936 316.488373,194.070724 
z"/>
<path fill="#2A3E69" opacity="1.000000" stroke="none" 
	d="
M272.165833,337.737244 
	C272.475006,339.482300 272.842010,340.775787 272.936981,342.088959 
	C273.500916,349.887878 272.558350,351.009125 264.830536,351.936707 
	C255.450638,353.062561 246.053955,354.066895 236.698120,355.365845 
	C233.137207,355.860260 231.302307,354.729462 230.821640,351.209106 
	C229.903061,344.481720 228.880463,337.767822 228.031601,331.031860 
	C227.545425,327.173981 229.248688,325.336456 233.311478,324.900269 
	C242.037048,323.963531 250.704712,322.501221 259.414520,321.399963 
	C268.524841,320.248138 271.271729,320.207062 271.134155,329.908417 
	C271.099304,332.365479 271.757996,334.832397 272.165833,337.737244 
z"/>
<path fill="#2A3E69" opacity="1.000000" stroke="none" 
	d="
M253.645370,227.013855 
	C255.413101,228.455627 257.619812,229.718597 257.947784,231.357529 
	C259.277924,238.004562 260.067871,244.762054 260.981750,251.489044 
	C261.477661,255.139389 259.651703,257.242340 256.139587,257.729340 
	C245.640564,259.185242 235.127502,260.540283 224.617737,261.918030 
	C220.906113,262.404602 218.767151,260.376465 218.276016,257.050537 
	C217.284134,250.333633 216.693802,243.557678 215.923019,236.807785 
	C215.514084,233.226486 217.413803,231.538574 220.685242,231.116440 
	C231.526611,229.717560 242.375000,228.373169 253.645370,227.013855 
z"/>
<path fill="#293E69" opacity="1.000000" stroke="none" 
	d="
M232.374878,277.161377 
	C240.542435,276.130249 248.288834,275.271606 255.999756,274.165527 
	C262.310028,273.260345 263.936096,274.173492 264.820343,280.220551 
	C265.660126,285.963379 266.238373,291.743988 267.013245,297.496948 
	C267.558014,301.541443 265.934326,303.961884 261.884338,304.519379 
	C251.047241,306.011200 240.220367,307.659454 229.334320,308.621796 
	C227.770676,308.760040 224.810669,305.687469 224.379807,303.693878 
	C223.089355,297.722961 222.579025,291.563416 222.055389,285.452576 
	C221.550018,279.554657 222.475677,278.679718 228.533554,277.944885 
	C229.680664,277.805756 230.804062,277.471222 232.374878,277.161377 
z"/>
<path fill="#CB8C3B" opacity="1.000000" stroke="none" 
	d="
M354.643799,333.893524 
	C356.672760,340.426819 355.794006,342.003876 349.371521,343.099457 
	C344.316040,343.961823 339.255585,344.807678 334.178162,345.525116 
	C329.941711,346.123749 327.632812,344.143524 327.045746,339.956024 
	C324.950653,325.012390 322.857300,310.067688 320.594025,295.149048 
	C320.043671,291.521454 320.474152,288.615601 324.478699,287.881195 
	C330.669525,286.745850 336.910950,285.650360 343.173859,285.294922 
	C344.947235,285.194275 347.941620,287.377594 348.511017,289.122131 
	C349.881165,293.320221 350.147400,297.878571 350.393250,302.572723 
	C349.480499,301.309052 348.942291,299.784088 348.601135,298.216248 
	C346.394623,288.075043 343.089722,285.955231 332.507446,288.352234 
	C338.472107,291.422363 341.524445,296.093689 342.112274,302.512177 
	C342.532318,307.098541 343.321045,311.654877 344.044342,316.208893 
	C345.449982,325.058929 348.527802,333.985565 341.688690,342.579041 
	C347.551300,342.743225 351.154572,340.935089 352.942444,336.049591 
	C353.241364,335.232758 354.063446,334.607361 354.643799,333.893524 
z"/>
<path fill="#293E69" opacity="1.000000" stroke="none" 
	d="
M316.067383,242.094666 
	C307.434418,243.394363 298.804871,244.717331 290.166870,245.982666 
	C286.563019,246.510574 282.880951,246.650894 279.345245,247.454803 
	C276.117645,248.188675 274.355072,246.947220 273.901825,244.082855 
	C273.049561,238.697006 272.352112,233.262863 272.097137,227.825027 
	C272.041840,226.645203 273.992828,224.450714 275.241699,224.271652 
	C288.840881,222.321945 302.484253,220.680603 316.555573,219.426224 
	C316.686157,227.296341 316.376770,234.695496 316.067383,242.094666 
z"/>
<path fill="#2A3F69" opacity="1.000000" stroke="none" 
	d="
M180.933090,333.031616 
	C181.236557,332.571960 181.540024,332.112305 181.981750,331.415649 
	C190.332794,330.206970 198.564453,329.368286 206.750381,328.207153 
	C210.822937,327.629486 213.975342,328.467010 214.647400,332.805420 
	C215.710358,339.667450 216.284576,346.605621 217.044556,353.513885 
	C217.418869,356.916443 215.390884,358.441101 212.438675,358.835388 
	C203.909622,359.974609 195.361465,360.970856 186.386902,362.057220 
	C185.953003,362.091248 185.979736,362.056458 185.950470,361.629028 
	C185.597610,358.793549 185.415970,356.355835 184.919647,353.983917 
	C184.008743,349.630676 182.912354,345.316193 181.966995,340.569366 
	C181.671494,337.779327 181.302292,335.405457 180.933090,333.031616 
z"/>
<path fill="#2A3F69" opacity="1.000000" stroke="none" 
	d="
M176.157257,284.189423 
	C184.542496,283.254822 192.951736,282.489929 201.302185,281.309296 
	C205.096542,280.772797 207.679764,281.537811 208.271500,285.528259 
	C209.313889,292.557922 210.413071,299.606995 210.798172,306.685516 
	C210.887512,308.327606 208.429352,311.316772 206.749557,311.640106 
	C198.965271,313.138641 191.056442,314.072083 183.154434,314.794617 
	C181.883118,314.910889 179.396271,313.094971 179.210236,311.901215 
	C177.861099,303.244293 176.958328,294.517822 175.977386,285.195312 
	C176.040436,284.577271 176.157257,284.189423 176.157257,284.189423 
z"/>
<path fill="#2A3F69" opacity="1.000000" stroke="none" 
	d="
M169.957047,237.931335 
	C178.962204,236.681870 187.945633,235.230179 196.987106,234.456238 
	C198.548615,234.322571 201.476593,236.817322 201.851929,238.521225 
	C203.305847,245.121735 203.984848,251.893036 204.948853,258.601257 
	C205.463898,262.185211 204.040848,264.443573 200.369003,264.925720 
	C191.842682,266.045349 183.305878,267.085388 174.122162,268.126465 
	C173.471008,268.095276 173.011948,267.980560 173.029236,267.534027 
	C171.998642,257.374481 170.950760,247.661453 169.902863,237.948425 
	C169.902863,237.948425 169.954971,237.958481 169.957047,237.931335 
z"/>
<path fill="#88BFD1" opacity="1.000000" stroke="none" 
	d="
M153.593994,118.978531 
	C155.000244,126.136688 156.042511,133.279373 156.987915,140.434875 
	C158.797562,154.131516 160.553787,167.835236 162.328934,181.536423 
	C163.553940,190.991425 164.736984,200.452179 166.041626,209.896149 
	C166.204926,211.078262 166.997635,212.173431 167.739792,213.583282 
	C167.980881,213.857681 167.519028,214.006699 167.283051,214.063232 
	C165.892761,214.177185 164.715759,214.109558 163.588104,214.314026 
	C159.094940,215.128723 156.597549,213.245621 155.994995,208.798645 
	C154.310608,196.367172 152.654465,183.931900 150.993713,171.497238 
	C149.071106,157.101822 147.265762,142.689514 145.186798,128.316742 
	C144.252670,121.858772 146.131088,119.398735 153.593994,118.978531 
z"/>
<path fill="#2A3E69" opacity="1.000000" stroke="none" 
	d="
M311.015839,278.028259 
	C301.709198,279.360229 292.413025,280.773254 283.090179,281.980011 
	C279.848541,282.399628 278.259155,280.572754 277.981201,277.322357 
	C277.671509,273.700928 277.243195,270.078583 276.632599,266.496490 
	C275.665436,260.822327 276.579224,258.984131 282.047150,258.275482 
	C292.376404,256.936859 302.749603,255.937744 313.554932,255.236206 
	C313.008820,263.126007 312.012329,270.577118 311.015839,278.028259 
z"/>
<path fill="#FC9906" opacity="1.000000" stroke="none" 
	d="
M301.116638,291.372711 
	C301.530304,291.298981 301.944000,291.225220 302.926025,291.408142 
	C308.726501,292.519745 311.764191,295.938477 312.683594,300.786713 
	C314.370972,309.684845 315.163361,318.760925 317.035278,327.613464 
	C318.798950,335.954224 318.697021,343.302124 310.873810,348.623474 
	C310.456665,348.717194 310.039551,348.810913 309.114716,348.657349 
	C307.917816,348.076141 307.228577,347.742218 306.539368,347.408264 
	C307.050720,347.441528 307.562073,347.474762 308.073395,347.508026 
	C309.039429,343.006256 310.999634,338.449127 310.752716,334.014893 
	C310.315796,326.166351 308.579620,318.385468 307.298492,310.590851 
	C306.778992,307.430145 306.027222,304.307617 305.381134,301.167725 
	C304.931396,301.264374 304.481659,301.361023 304.031952,301.457703 
	C300.059235,309.692780 296.086517,317.927856 291.632263,327.161072 
	C289.840118,321.598114 288.597809,317.741943 287.355530,313.885773 
	C287.275055,313.462280 287.194580,313.038818 287.392212,312.007507 
	C287.562622,309.448425 287.444000,307.497711 287.349548,305.545837 
	C287.158508,301.598938 284.660034,297.547821 287.873444,293.752045 
	C287.873444,293.752045 288.198578,293.548309 288.851074,293.691803 
	C293.374573,293.014435 297.245605,292.193573 301.116638,291.372711 
z"/>
<path fill="#CC8D3A" opacity="1.000000" stroke="none" 
	d="
M287.226410,314.309357 
	C288.597809,317.741943 289.840118,321.598114 291.632263,327.161072 
	C296.086517,317.927856 300.059235,309.692780 304.031952,301.457703 
	C304.481659,301.361023 304.931396,301.264374 305.381134,301.167725 
	C306.027222,304.307617 306.778992,307.430145 307.298492,310.590851 
	C308.579620,318.385468 310.315796,326.166351 310.752716,334.014893 
	C310.999634,338.449127 309.039429,343.006256 308.073395,347.508026 
	C307.562073,347.474762 307.050720,347.441528 306.539368,347.408264 
	C307.228577,347.742218 307.917816,348.076141 308.792999,348.644409 
	C305.770630,349.538147 302.562988,350.201080 299.353729,350.856079 
	C294.745728,351.796600 292.246063,349.366547 291.571991,345.259735 
	C289.906433,335.112701 288.567505,324.912048 287.226410,314.309357 
z"/>
<path fill="#F8FAFD" opacity="1.000000" stroke="none" 
	d="
M171.423096,314.471222 
	C169.770782,312.536377 167.670624,310.666840 167.403000,308.564056 
	C164.216080,283.524170 161.219315,258.458557 158.488449,233.365311 
	C158.290710,231.548233 160.547943,229.463989 161.663757,227.503967 
	C163.351028,228.979614 165.457504,230.194595 166.589554,232.015411 
	C167.456100,233.409180 167.091324,235.568527 167.430908,238.194122 
	C168.742737,248.661789 169.897873,258.322693 171.025436,268.413269 
	C171.715164,274.565552 172.432480,280.288147 173.149796,286.010773 
	C174.008545,293.255768 174.855804,300.502167 175.731323,307.745117 
	C176.122513,310.981201 175.954727,313.851105 171.423096,314.471222 
z"/>
<path fill="#394C7F" opacity="1.000000" stroke="none" 
	d="
M311.458069,278.031250 
	C312.012329,270.577118 313.008820,263.126007 314.010834,255.197479 
	C320.045349,253.801392 326.074310,252.882675 332.748962,252.238892 
	C339.250153,255.145432 342.990387,260.054779 341.807159,265.036530 
	C340.977142,268.531311 338.661102,271.673126 337.008667,274.972534 
	C328.639191,275.993103 320.269745,277.013672 311.458069,278.031250 
z"/>
<path fill="#394C7F" opacity="1.000000" stroke="none" 
	d="
M316.508911,242.077972 
	C316.376770,234.695496 316.686157,227.296341 316.998352,219.437347 
	C320.401581,218.338730 323.802032,217.699951 327.674713,217.418640 
	C336.109192,222.084579 338.160400,224.799469 336.804596,231.736221 
	C336.219421,234.730133 333.673645,237.340836 332.018494,240.125610 
	C326.995819,240.770844 321.973114,241.416077 316.508911,242.077972 
z"/>
<path fill="#FA9909" opacity="1.000000" stroke="none" 
	d="
M354.715210,333.549835 
	C354.063446,334.607361 353.241364,335.232758 352.942444,336.049591 
	C351.154572,340.935089 347.551300,342.743225 341.688690,342.579041 
	C348.527802,333.985565 345.449982,325.058929 344.044342,316.208893 
	C343.321045,311.654877 342.532318,307.098541 342.112274,302.512177 
	C341.524445,296.093689 338.472107,291.422363 332.507446,288.352234 
	C343.089722,285.955231 346.394623,288.075043 348.601135,298.216248 
	C348.942291,299.784088 349.480499,301.309052 350.261230,302.979523 
	C350.674957,303.521332 350.755005,303.937469 350.567383,304.971863 
	C351.048523,309.102966 351.797302,312.615845 352.546082,316.128723 
	C352.625519,316.540161 352.704987,316.951599 352.525024,317.984985 
	C353.042267,322.778564 353.818970,326.950195 354.595642,331.121796 
	C354.659302,331.816589 354.722961,332.511353 354.715210,333.549835 
z"/>
<path fill="#324576" opacity="1.000000" stroke="none" 
	d="
M332.458038,240.105362 
	C333.673645,237.340836 336.219421,234.730133 336.804596,231.736221 
	C338.160400,224.799469 336.109192,222.084579 328.086731,217.435059 
	C331.981018,216.724442 335.943451,216.047653 339.885895,216.149155 
	C341.297485,216.185501 343.612976,217.905411 343.878662,219.194382 
	C344.942963,224.357437 345.641907,229.643158 345.828918,234.906479 
	C345.875793,236.225754 343.740051,238.370468 342.210571,238.838272 
	C339.255554,239.742081 336.018005,239.722122 332.458038,240.105362 
z"/>
<path fill="#314475" opacity="1.000000" stroke="none" 
	d="
M337.428833,274.981018 
	C338.661102,271.673126 340.977142,268.531311 341.807159,265.036530 
	C342.990387,260.054779 339.250153,255.145432 333.185181,252.241913 
	C336.024902,251.633972 339.074097,251.297974 342.605865,251.299088 
	C345.046509,253.093582 347.004547,254.550980 348.962616,256.008362 
	C349.591400,260.091034 350.169708,264.182281 350.864563,268.253693 
	C351.443787,271.647430 349.700287,273.286377 346.687988,273.823547 
	C343.765320,274.344727 340.797180,274.611176 337.428833,274.981018 
z"/>
<path fill="#CC8D3A" opacity="1.000000" stroke="none" 
	d="
M311.272095,348.744019 
	C318.697021,343.302124 318.798950,335.954224 317.035278,327.613464 
	C315.163361,318.760925 314.370972,309.684845 312.683594,300.786713 
	C311.764191,295.938477 308.726501,292.519745 303.241699,291.429138 
	C309.994965,289.000031 312.571350,290.092865 313.714600,296.830444 
	C316.267395,311.874939 318.518982,326.973083 320.680695,342.079803 
	C321.289886,346.337128 318.234100,348.420868 311.272095,348.744019 
z"/>
<path fill="#7A8BBE" opacity="1.000000" stroke="none" 
	d="
M173.406906,285.863098 
	C172.432480,280.288147 171.715164,274.565552 171.351669,268.432373 
	C172.140976,268.008087 172.576462,267.994324 173.011948,267.980560 
	C173.011948,267.980560 173.471008,268.095276 173.679321,268.208618 
	C174.575455,273.331329 175.263260,278.340698 176.054169,283.769745 
	C176.157257,284.189423 176.040436,284.577271 175.942902,284.754944 
	C175.118256,285.193573 174.391144,285.454529 173.406906,285.863098 
z"/>
<path fill="#CC8D3A" opacity="1.000000" stroke="none" 
	d="
M287.481293,293.824707 
	C284.660034,297.547821 287.158508,301.598938 287.349548,305.545837 
	C287.444000,307.497711 287.562622,309.448425 287.413361,311.683838 
	C286.392426,307.298126 285.430847,302.646576 284.994904,297.946228 
	C284.876709,296.672333 286.347595,295.251007 287.481293,293.824707 
z"/>
<path fill="#CC8D3A" opacity="1.000000" stroke="none" 
	d="
M300.699738,291.236206 
	C297.245605,292.193573 293.374573,293.014435 289.042847,293.687439 
	C292.482391,292.726257 296.382629,291.912964 300.699738,291.236206 
z"/>
<path fill="#394C7F" opacity="1.000000" stroke="none" 
	d="
M348.981720,255.618851 
	C347.004547,254.550980 345.046509,253.093582 343.042053,251.295258 
	C347.520782,248.834717 348.679047,251.444519 348.981720,255.618851 
z"/>
<path fill="#CB8C3B" opacity="1.000000" stroke="none" 
	d="
M354.739288,330.705780 
	C353.818970,326.950195 353.042267,322.778564 352.500732,318.300110 
	C353.451538,322.092102 354.167236,326.190918 354.739288,330.705780 
z"/>
<path fill="#CB8C3B" opacity="1.000000" stroke="none" 
	d="
M352.690002,315.732239 
	C351.797302,312.615845 351.048523,309.102966 350.539917,305.290314 
	C351.464722,308.438934 352.149323,311.887360 352.690002,315.732239 
z"/>
<path fill="#5B6F9A" opacity="1.000000" stroke="none" 
	d="
M181.893295,340.985565 
	C182.912354,345.316193 184.008743,349.630676 184.919647,353.983917 
	C185.415970,356.355835 185.597610,358.793549 185.933136,361.620422 
	C184.676437,362.300629 183.410919,362.578369 182.138611,362.820435 
	C177.634125,363.677368 174.697968,361.733643 174.100250,357.272552 
	C173.581985,353.404449 173.314438,349.502808 173.308655,345.173462 
	C176.418579,343.482513 179.155945,342.234039 181.893295,340.985565 
z"/>
<path fill="#F9FBFE" opacity="1.000000" stroke="none" 
	d="
M181.966995,340.569366 
	C179.155945,342.234039 176.418579,343.482513 173.290131,344.717926 
	C168.080307,341.468689 166.597504,337.928345 168.485825,334.167877 
	C170.868256,329.423431 175.800385,328.833771 180.607513,332.894592 
	C181.302292,335.405457 181.671494,337.779327 181.966995,340.569366 
z"/>
<path fill="#596EB0" opacity="1.000000" stroke="none" 
	d="
M173.029236,267.534027 
	C172.576462,267.994324 172.140976,268.008087 171.379257,268.002747 
	C169.897873,258.322693 168.742737,248.661789 167.589081,238.544678 
	C168.104843,238.051773 168.619156,238.015060 169.518158,237.963394 
	C170.950760,247.661453 171.998642,257.374481 173.029236,267.534027 
z"/>
<path fill="#F13A3A" opacity="1.000000" stroke="none" 
	d="
M179.581512,175.683441 
	C185.635757,167.686356 198.675308,164.647827 207.222153,168.942825 
	C211.810043,171.248367 212.473587,175.410309 208.829605,179.025223 
	C203.383804,184.427582 189.595444,186.469528 183.113968,182.302048 
	C181.293564,181.131577 180.630173,178.161591 179.581512,175.683441 
z"/>
<path fill="#F03B3B" opacity="1.000000" stroke="none" 
	d="
M293.738953,170.863770 
	C289.415131,170.196045 285.293945,170.102768 281.718079,168.658936 
	C277.390900,166.911743 277.072662,162.701584 280.331177,159.307297 
	C285.795380,153.615387 299.877533,151.665909 306.582428,155.673203 
	C310.719757,158.145950 311.458954,162.727722 307.339172,165.423203 
	C303.441162,167.973557 298.606140,169.091721 293.738953,170.863770 
z"/>
<path fill="#171E2F" opacity="1.000000" stroke="none" 
	d="
M288.079529,132.128052 
	C291.030182,137.949600 290.667023,142.183167 287.030029,145.593277 
	C283.643097,148.768906 279.672089,149.406601 275.552002,147.374359 
	C271.216003,145.235611 268.745483,141.303879 270.204681,136.777725 
	C271.191864,133.715851 273.923981,130.534683 276.742126,128.908630 
	C280.730133,126.607613 284.750977,128.461014 288.079529,132.128052 
z"/>
<path fill="#161C2C" opacity="1.000000" stroke="none" 
	d="
M239.828125,171.378403 
	C237.323227,169.392380 234.586212,167.620056 232.447540,165.296890 
	C231.759323,164.549316 232.648026,162.350082 232.815323,160.814972 
	C234.165787,160.983536 235.705200,160.789398 236.836502,161.378708 
	C245.056229,165.660446 247.105560,165.445480 253.606583,159.684448 
	C254.690277,158.724106 256.357635,158.422379 257.755280,157.816315 
	C258.250946,159.589569 259.527832,161.612930 259.058990,163.077438 
	C258.357697,165.268219 256.428619,167.065994 254.427216,168.850403 
	C248.163177,166.103592 243.824081,166.942780 239.828125,171.378403 
z"/>
<path fill="#132433" opacity="1.000000" stroke="none" 
	d="
M209.020020,142.897125 
	C211.927567,144.491241 214.571823,145.842026 216.898422,147.610703 
	C217.672928,148.199478 217.958191,149.904831 217.804825,151.007614 
	C217.743774,151.446548 215.867966,151.951385 214.852951,151.886276 
	C209.410782,151.537216 204.279266,151.983887 199.964798,155.918686 
	C199.415756,156.419418 197.999878,155.969711 196.985596,155.960312 
	C197.192596,154.818024 196.998978,153.118561 197.676849,152.631119 
	C200.428589,150.652451 203.447922,149.045975 207.156067,146.832077 
	C205.050812,146.832077 203.512009,147.060532 202.090836,146.750290 
	C201.171265,146.549545 200.423737,145.560837 199.599106,144.925217 
	C200.311447,144.162766 200.962051,142.830872 201.747818,142.745682 
	C204.013611,142.500015 206.333893,142.757172 209.020020,142.897125 
z"/>
<path fill="#CA4749" opacity="1.000000" stroke="none" 
	d="
M240.050537,171.679489 
	C243.824081,166.942780 248.163177,166.103592 254.112549,168.965607 
	C250.390518,173.826157 245.505310,173.804657 240.050537,171.679489 
z"/>
</svg>